<?xml version="1.0" encoding="UTF-8" standalone="no"?>
<!-- Created with Inkscape (http://www.inkscape.org/) -->

<svg
   xmlns:dc="http://purl.org/dc/elements/1.1/"
   xmlns:cc="http://creativecommons.org/ns#"
   xmlns:rdf="http://www.w3.org/1999/02/22-rdf-syntax-ns#"
   xmlns:svg="http://www.w3.org/2000/svg"
   xmlns="http://www.w3.org/2000/svg"
   version="1.1"
   width="237.75"
   height="133.4375"
   id="svg9161">
  <defs
     id="defs9163" />
  <metadata
     id="metadata9166">
    <rdf:RDF>
      <cc:Work
         rdf:about="">
        <dc:format>image/svg+xml</dc:format>
        <dc:type
           rdf:resource="http://purl.org/dc/dcmitype/StillImage" />
        <dc:title></dc:title>
      </cc:Work>
    </rdf:RDF>
  </metadata>
  <g
     transform="translate(-256.16098,-465.67659)"
     id="layer1">
    <g
       transform="translate(-356.90152,133.02626)"
       id="g9124">
      <g
         transform="translate(633,376.34824)"
         id="g4420">
        <path
           d="m -0.19577248,15.396838 c 0,0 -0.80329197,-6.4580044 -0.80329197,-6.4580044 0,-2.1217319 3.93757625,-5.7685781 5.43786735,-7.2688691 1.500291,-1.50029103 1.6268791,1.1575212 3.748611,1.1575212 0,0 7.0509191,-0.8806342 7.0509191,-0.8806342 0,0 -0.160865,2.5019052 -0.160865,2.5019052 0,0 19.963818,0.9555212 19.963818,0.9555212 0,0 3.843908,-5.07214177 3.843908,-5.07214177 0,0 77.792856,-1.30605296 77.792856,-1.30605296 0,0 6.32658,2.10991083 6.32658,2.10991083 2.12173,0 5.64024,-1.2265744 7.14053,0.2737166 1.50029,1.5002911 3.01332,3.4748462 3.01332,5.5965782 0,0 0.59682,11.8456062 0.59682,11.8456062 0,0 -1.52027,4.300183 -1.52027,4.300183 0,0 -1.0262,8.958142 -1.0262,8.958142 0,2.121732 -1.00923,5.456226 -2.50952,6.956517 -1.5003,1.500292 0.3758,2.36259 -1.74593,2.36259 0,0 -8.15595,0.447749 -8.15595,0.447749 0,0 -82.607802,-2.705544 -82.607802,-2.705544 0,0 -2.569703,3.276015 -2.569703,3.276015 0,0 2.182484,0.720476 2.182484,0.720476 0,0 -14.802972,1.784531 -14.802972,1.784531 0,0 -3.685501,-5.028281 -3.685501,-5.028281 0,0 -2.26286,0.62662 -2.26286,0.62662 0,0 -7.1986987,-1.188868 -7.1986987,-1.188868 -2.1217319,0 -4.1492276,2.43821 -5.6495186,0.937919 -1.50029105,-1.500291 -1.29051761,-7.17629 -1.29051761,-9.298022 0,0 -1.64454148,-5.002181 -1.64454148,-5.002181 0,0 2.71622719,-7.258566 2.71622719,-7.258566"
           id="path3058"
           style="fill:#ffc000;fill-opacity:1;stroke:#c48d00;stroke-width:2;stroke-linecap:round;stroke-opacity:1" />
        <text
           id="text3060"
           style="font-size:20px;text-anchor:end;fill:#000000;font-family:Sans">
          <tspan
             x="114"
             y="28"
             id="tspan3062">chunk1</tspan>
        </text>
      </g>
      <g
         transform="translate(615,334.33783)"
         id="g4480">
        <path
           d="m 0.17349311,18.821232 c 0,0 -1.11982047,-10.28146 -1.11982047,-10.28146 0,-2.1217319 4.31092346,-4.9941423 5.81121446,-6.4944333 1.5002911,-1.50029104 0.6497033,-2.50834352 2.7714352,-2.50834352 0,0 7.6631007,2.51563912 7.6631007,2.51563912 0,0 3.029346,4.4421472 3.029346,4.4421472 0,0 18.07412,-3.403566 18.07412,-3.403566 0,0 -1.397117,-1.9393838 -1.397117,-1.9393838 0,0 21.617051,-1.32078257 21.617051,-1.32078257 0,0 38.976424,3.07706587 38.976424,3.07706587 0,0 5.690503,-0.8712718 5.690503,-0.8712718 2.12173,0 5.32173,-2.11827735 6.82202,-0.6179863 1.5003,1.500291 4.73398,4.6892029 4.73398,6.8109348 0,0 -1.14623,6.8965303 -1.14623,6.8965303 0,0 -7.37277,0.377105 -7.37277,0.377105 0,0 -2.59299,-2.955321 -2.59299,-2.955321 0,0 -5.594752,-3.192083 -5.594752,-3.192083 0,0 -2.737267,20.44166 -2.737267,20.44166 0,0 9.279039,3.176677 9.279039,3.176677 0,0 -0.47946,-6.140755 -0.47946,-6.140755 0,0 6.80125,-1.73217 6.80125,-1.73217 0,0 0.70025,9.420843 0.70025,9.420843 0,2.121732 -1.49159,3.096256 -2.99188,4.596547 -1.50029,1.500291 -3.25056,2.994684 -5.37229,2.994684 0,0 -6.672964,0.858352 -6.672964,0.858352 0,0 -39.462249,-3.961487 -39.462249,-3.961487 0,0 -0.56513,0.842477 -0.56513,0.842477 0,0 -3.418756,4.236104 -3.418756,4.236104 0,0 -15.537714,-0.593098 -15.537714,-0.593098 0,0 0.820661,-4.432992 0.820661,-4.432992 0,0 -1.392657,-0.05985 -1.392657,-0.05985 0,0 -6.502282,3.186836 -6.502282,3.186836 -2.652165,0 -7.035688,-2.122735 -8.911052,-0.247372 -1.875364,1.875364 -4.674729,6.111008 -4.674729,8.763173 0,0 2.840487,6.489767 2.840487,6.489767 0,0 -0.684533,11.796664 -0.684533,11.796664 0,0 0.702922,7.803588 0.702922,7.803588 0,2.652165 1.924347,4.365681 3.799711,6.241045 1.875363,1.875364 1.005416,0.850816 3.657581,0.850816 0,0 8.469794,-0.493312 8.469794,-0.493312 0,0 0.382795,3.776906 0.382795,3.776906 0,0 22.295758,0.490612 22.295758,0.490612 0,0 -0.517471,-0.912061 -0.517471,-0.912061 0,0 13.540506,-0.416303 13.540506,-0.416303 0,0 -0.472296,10.283533 -0.472296,10.283533 0,0 3.935242,12.714963 3.935242,12.714963 0,0 -0.557361,9.08164 -0.557361,9.08164 0,2.12174 -3.761846,1.42482 -5.262137,2.92511 -1.500291,1.50029 -3.734617,4.70916 -5.856349,4.70916 0,0 -6.04387,0.93621 -6.04387,0.93621 0,0 -18.076046,0.008 -18.076046,0.008 0,0 -3.381848,-0.39622 -3.381848,-0.39622 0,0 2.282496,4.08917 2.282496,4.08917 0,0 -15.459391,-0.50921 -15.459391,-0.50921 0,0 -3.252356,-4.0235 -3.252356,-4.0235 0,0 -0.216798,-3.14691 -0.216798,-3.14691 0,0 -6.780956,0.53518 -6.780956,0.53518 -2.1217323,0 -7.5025764,0.32299 -9.0028674,-1.1773 -1.50029101,-1.50029 1.4201066,-4.14398 1.4201066,-6.26571 0,0 -3.57660988,-6.20901 -3.57660988,-6.20901 0,0 0.0181128,-93.813001 0.0181128,-93.813001"
           id="path3035-5"
           style="fill:#e37a00;fill-opacity:1;stroke:#a34600;stroke-width:2;stroke-linecap:round;stroke-opacity:1" />
        <text
           id="text3037-7"
           style="font-size:20px;text-anchor:start;fill:#000000;font-family:Sans">
          <tspan
             x="8"
             y="30.5"
             id="tspan3039-5">repeat</tspan>
        </text>
      </g>
      <g
         transform="translate(711,334.33783)"
         id="g4544">
        <path
           d="m 15.307234,-0.06514876 c 0,0 120.621256,-0.62359859 120.621256,-0.62359859 0,0 2.82088,42.65813235 2.82088,42.65813235 0,0 -120.241669,-2.283477 -120.241669,-2.283477 0,0 -3.028456,-13.386946 -3.028456,-13.386946 0,0 -0.469842,-3.492668 -0.469842,-3.492668 0,0 -8.0235612,-0.04385 -8.0235612,-0.04385 0,0 -3.9766383,6.429204 -3.9766383,6.429204 0,0 -1.1546543,-1.999893 -1.1546543,-1.999893 0,0 1.1250235,-14.476874 1.1250235,-14.476874 0,0 0.754652,1.833605 0.754652,1.833605 0,0 0.039026,6.031097 0.039026,6.031097 0,0 13.3275973,-3.57704 13.3275973,-3.57704 0,0 -1.437397,1.485286 -1.437397,1.485286 0,0 0.591107,-15.631943 0.591107,-15.631943"
           id="path21-4"
           style="fill:#ff00ff;fill-opacity:1;stroke:#c700d3;stroke-width:2;stroke-linecap:round;stroke-opacity:1" />
        <text
           id="text23-50"
           style="font-size:20px;text-anchor:start;fill:#000000;font-family:Sans">
          <tspan
             x="20"
             y="26"
             id="tspan25-1">100</tspan>
        </text>
      </g>
    </g>
  </g>
</svg>
